#usda 1.0
(
    customLayerData = {
        string "aeco:clash:layer" = "exact-body tessellations at two deflections; presentation translations"
    }
)

def "demo_datacentre_01"
{
    def "demo_datacentre_01_Site"
    {
        def "demo_datacentre_01"
        {
            def "L01_Office"
            {
                def "Office_Corridor_L01"
                {
                    def "Corridor_ceiling_void"
                    {
                        def "pipe_clash_near"
                        {
                            def Mesh "StudyFine" (
                                prepend apiSchemas = ["AecoDerivedGeometryAPI"]
                            )
                            {
                                uniform token aeco:derived:approx = "tessellated"
                                rel aeco:derived:from = </demo_datacentre_01/demo_datacentre_01_Site/demo_datacentre_01/L01_Office/Office_Corridor_L01/Corridor_ceiling_void/pipe_clash_near/BodyExact>
                                uniform token aeco:derived:role = "proxy"
                                string aeco:derived:source = "6e5a2055-fc33-5dd4-8df1-af4a6e337adb"
                                string aeco:derived:stamp = "usdSolidOcct 0.1.0; linear deflection=0.0001 m; angular deflection=0.5 rad"
                                double aeco:derived:tolerance = 0.0001
                                int[] faceVertexCounts = [3, 3, 3, 3, 3, 3, 3, 3, 3, 3, 3, 3, 3, 3, 3, 3, 3, 3, 3, 3, 3, 3, 3, 3, 3, 3, 3, 3, 3, 3, 3, 3, 3, 3, 3, 3, 3, 3, 3, 3, 3, 3, 3, 3, 3, 3, 3, 3, 3, 3, 3, 3, 3, 3, 3, 3, 3, 3, 3, 3, 3, 3, 3, 3, 3, 3, 3, 3, 3, 3, 3, 3, 3, 3, 3, 3, 3, 3, 3, 3, 3, 3, 3, 3, 3, 3, 3, 3, 3, 3, 3, 3, 3, 3, 3, 3, 3, 3, 3, 3, 3, 3, 3, 3, 3, 3, 3, 3, 3, 3, 3, 3, 3, 3, 3, 3, 3, 3, 3, 3, 3, 3, 3, 3, 3, 3, 3, 3, 3, 3, 3, 3, 3, 3, 3, 3, 3, 3, 3, 3, 3, 3, 3, 3, 3, 3, 3, 3, 3, 3, 3, 3, 3, 3, 3, 3, 3, 3, 3, 3, 3, 3, 3, 3, 3, 3, 3, 3, 3, 3, 3, 3, 3, 3, 3, 3, 3, 3, 3, 3, 3, 3, 3, 3, 3, 3, 3, 3, 3, 3, 3, 3, 3, 3, 3, 3, 3, 3, 3, 3, 3, 3, 3, 3, 3, 3, 3, 3, 3, 3, 3, 3, 3, 3, 3, 3, 3, 3, 3, 3, 3, 3, 3, 3, 3, 3, 3, 3]
                                int[] faceVertexIndices = [59, 29, 28, 58, 28, 27, 58, 59, 28, 57, 27, 26, 57, 58, 27, 56, 26, 25, 56, 57, 26, 55, 25, 24, 55, 56, 25, 54, 55, 24, 53, 23, 22, 53, 24, 23, 53, 54, 24, 52, 22, 21, 52, 53, 22, 51, 52, 21, 50, 20, 19, 50, 21, 20, 50, 51, 21, 49, 50, 19, 48, 49, 19, 48, 18, 17, 48, 19, 18, 47, 48, 17, 46, 47, 17, 46, 17, 16, 45, 15, 14, 45, 16, 15, 45, 46, 16, 44, 14, 13, 44, 45, 14, 43, 13, 12, 43, 44, 13, 42, 12, 11, 42, 43, 12, 41, 42, 11, 40, 11, 10, 40, 41, 11, 39, 10, 9, 39, 40, 10, 38, 9, 8, 38, 39, 9, 37, 8, 7, 37, 38, 8, 36, 7, 6, 36, 37, 7, 35, 6, 5, 35, 36, 6, 34, 5, 4, 34, 35, 5, 33, 4, 3, 33, 34, 4, 32, 2, 1, 32, 3, 2, 32, 33, 3, 31, 32, 1, 30, 1, 0, 30, 31, 1, 88, 89, 90, 88, 90, 119, 87, 119, 118, 87, 88, 119, 86, 118, 117, 86, 87, 118, 85, 117, 116, 85, 86, 117, 84, 116, 115, 84, 85, 116, 83, 115, 114, 83, 84, 115, 82, 114, 113, 82, 83, 114, 81, 113, 112, 81, 82, 113, 80, 112, 111, 80, 81, 112, 79, 111, 110, 79, 80, 111, 78, 79, 110, 78, 109, 108, 78, 110, 109, 77, 78, 108, 76, 77, 108, 76, 107, 106, 76, 108, 107, 75, 76, 106, 74, 75, 106, 74, 106, 105, 73, 74, 105, 73, 105, 104, 72, 73, 104, 72, 104, 103, 71, 72, 103, 71, 103, 102, 70, 102, 101, 70, 71, 102, 69, 101, 100, 69, 70, 101, 68, 99, 98, 68, 100, 99, 68, 69, 100, 67, 68, 98, 66, 98, 97, 66, 67, 98, 65, 97, 96, 65, 66, 97, 64, 96, 95, 64, 65, 96, 63, 94, 93, 63, 95, 94, 63, 64, 95, 62, 63, 93, 61, 93, 92, 61, 62, 93, 60, 92, 91, 60, 61, 92, 121, 120, 127, 122, 121, 127, 123, 122, 127, 124, 123, 127, 125, 124, 127, 126, 125, 127, 129, 128, 127, 130, 129, 127, 131, 130, 127, 132, 131, 127, 133, 132, 127, 134, 133, 127, 135, 134, 127, 136, 135, 127, 137, 136, 127, 138, 137, 127, 139, 138, 127, 140, 139, 127, 141, 140, 127, 142, 141, 127, 143, 142, 127, 144, 143, 127, 145, 144, 127, 146, 145, 127, 147, 146, 127, 148, 147, 127, 149, 148, 127, 150, 149, 127, 151, 150, 127, 152, 151, 127, 153, 152, 127, 154, 153, 127, 155, 154, 127, 156, 155, 127, 157, 156, 127, 158, 157, 127, 159, 158, 127, 160, 159, 127, 161, 160, 127, 162, 161, 127, 163, 162, 127, 164, 163, 127, 165, 164, 127, 166, 165, 127, 167, 166, 127, 168, 167, 127, 169, 168, 127, 170, 169, 127, 171, 170, 127, 172, 171, 127, 173, 172, 127, 174, 173, 127, 175, 174, 127, 176, 175, 127, 177, 176, 127, 120, 177, 127, 185, 178, 179, 185, 179, 180, 185, 180, 181, 185, 181, 182, 185, 182, 183, 185, 183, 184, 185, 186, 187, 185, 187, 188, 185, 188, 189, 185, 189, 190, 185, 190, 191, 185, 191, 192, 185, 192, 193, 185, 193, 194, 185, 194, 195, 185, 195, 196, 185, 196, 197, 185, 197, 198, 185, 198, 199, 185, 199, 200, 185, 200, 201, 185, 201, 202, 185, 202, 203, 185, 203, 204, 185, 204, 205, 185, 205, 206, 185, 206, 207, 185, 207, 208, 185, 208, 209, 185, 209, 210, 185, 210, 211, 185, 211, 212, 185, 212, 213, 185, 213, 214, 185, 214, 215, 185, 215, 216, 185, 216, 217, 185, 217, 218, 185, 218, 219, 185, 219, 220, 185, 220, 221, 185, 221, 222, 185, 222, 223, 185, 223, 224, 185, 224, 225, 185, 225, 226, 185, 226, 227, 185, 227, 228, 185, 228, 229, 185, 229, 230, 185, 230, 231, 185, 231, 232, 185, 232, 233, 185, 233, 234, 185, 234, 235, 185, 235, 178]
                                point3f[] points = [(37, -1.53015, 6.88515), (37, -1.5299813, 6.8819647), (37, -1.5294508, 6.8786945), (37, -1.5286103, 6.8756385), (37, -1.5274577, 6.8726964), (37, -1.5260081, 6.869899), (37, -1.5242796, 6.8672748), (37, -1.5222932, 6.8648515), (37, -1.5200723, 6.862653), (37, -1.5173615, 6.8605003), (37, -1.5144318, 6.8586783), (37, -1.5113239, 6.8572073), (37, -1.5080796, 6.856103), (37, -1.5047426, 6.8553753), (37, -1.5013565, 6.8550305), (37, -1.4979068, 6.855073), (37, -1.4947478, 6.855461), (37, -1.4916568, 6.8561773), (37, -1.4886669, 6.857211), (37, -1.4858099, 6.858548), (37, -1.4831156, 6.8601713), (37, -1.4806117, 6.8620605), (37, -1.4783236, 6.864194), (37, -1.4760622, 6.86682), (37, -1.4741228, 6.8696775), (37, -1.4725277, 6.8727283), (37, -1.4712943, 6.8759303), (37, -1.4704349, 6.87924), (37, -1.4699914, 6.8822327), (37, -1.46985, 6.88515), (35, -1.53015, 6.88515), (35, -1.5299813, 6.8819647), (35, -1.5294508, 6.8786945), (35, -1.5286103, 6.8756385), (35, -1.5274577, 6.8726964), (35, -1.5260081, 6.869899), (35, -1.5242796, 6.8672748), (35, -1.5222932, 6.8648515), (35, -1.5200723, 6.862653), (35, -1.5173615, 6.8605003), (35, -1.5144318, 6.8586783), (35, -1.5113239, 6.8572073), (35, -1.5080796, 6.856103), (35, -1.5047426, 6.8553753), (35, -1.5013565, 6.8550305), (35, -1.4979068, 6.855073), (35, -1.4947478, 6.855461), (35, -1.4916568, 6.8561773), (35, -1.4886669, 6.857211), (35, -1.4858099, 6.858548), (35, -1.4831156, 6.8601713), (35, -1.4806117, 6.8620605), (35, -1.4783236, 6.864194), (35, -1.4760622, 6.86682), (35, -1.4741228, 6.8696775), (35, -1.4725277, 6.8727283), (35, -1.4712943, 6.8759303), (35, -1.4704349, 6.87924), (35, -1.4699914, 6.8822327), (35, -1.46985, 6.88515), (35, -1.46985, 6.88515), (35, -1.4700187, 6.888335), (35, -1.4705492, 6.891606), (35, -1.4713897, 6.8946614), (35, -1.4725423, 6.8976035), (35, -1.4739919, 6.900401), (35, -1.4757204, 6.903025), (35, -1.4777068, 6.9054484), (35, -1.4799277, 6.907647), (35, -1.4826385, 6.9097996), (35, -1.4855682, 6.9116216), (35, -1.4886761, 6.9130926), (35, -1.4919204, 6.9141974), (35, -1.4952574, 6.9149246), (35, -1.4986435, 6.9152694), (35, -1.5020932, 6.9152274), (35, -1.5052522, 6.914839), (35, -1.5083432, 6.9141226), (35, -1.5113331, 6.913089), (35, -1.5141901, 6.9117517), (35, -1.5168844, 6.9101286), (35, -1.5193883, 6.9082394), (35, -1.5216764, 6.906106), (35, -1.5239378, 6.9034805), (35, -1.5258772, 6.9006224), (35, -1.5274723, 6.8975716), (35, -1.5287057, 6.89437), (35, -1.5295651, 6.89106), (35, -1.5300086, 6.8880672), (35, -1.53015, 6.88515), (37, -1.53015, 6.88515), (37, -1.46985, 6.88515), (37, -1.4700187, 6.888335), (37, -1.4705492, 6.891606), (37, -1.4713897, 6.8946614), (37, -1.4725423, 6.8976035), (37, -1.4739919, 6.900401), (37, -1.4757204, 6.903025), (37, -1.4777068, 6.9054484), (37, -1.4799277, 6.907647), (37, -1.4826385, 6.9097996), (37, -1.4855682, 6.9116216), (37, -1.4886761, 6.9130926), (37, -1.4919204, 6.9141974), (37, -1.4952574, 6.9149246), (37, -1.4986435, 6.9152694), (37, -1.5020932, 6.9152274), (37, -1.5052522, 6.914839), (37, -1.5083432, 6.9141226), (37, -1.5113331, 6.913089), (37, -1.5141901, 6.9117517), (37, -1.5168844, 6.9101286), (37, -1.5193883, 6.9082394), (37, -1.5216764, 6.906106), (37, -1.5239378, 6.9034805), (37, -1.5258772, 6.9006224), (37, -1.5274723, 6.8975716), (37, -1.5287057, 6.89437), (37, -1.5295651, 6.89106), (37, -1.5300086, 6.8880672), (35, -1.46985, 6.88515), (35, -1.4700187, 6.888335), (35, -1.4705492, 6.891606), (35, -1.4713897, 6.8946614), (35, -1.4725423, 6.8976035), (35, -1.4739919, 6.900401), (35, -1.4757204, 6.903025), (35, -1.4777068, 6.9054484), (35, -1.4799277, 6.907647), (35, -1.4826385, 6.9097996), (35, -1.4855682, 6.9116216), (35, -1.4886761, 6.9130926), (35, -1.4919204, 6.9141974), (35, -1.4952574, 6.9149246), (35, -1.4986435, 6.9152694), (35, -1.5020932, 6.9152274), (35, -1.5052522, 6.914839), (35, -1.5083432, 6.9141226), (35, -1.5113331, 6.913089), (35, -1.5141901, 6.9117517), (35, -1.5168844, 6.9101286), (35, -1.5193883, 6.9082394), (35, -1.5216764, 6.906106), (35, -1.5239378, 6.9034805), (35, -1.5258772, 6.9006224), (35, -1.5274723, 6.8975716), (35, -1.5287057, 6.89437), (35, -1.5295651, 6.89106), (35, -1.5300086, 6.8880672), (35, -1.53015, 6.88515), (35, -1.5299813, 6.8819647), (35, -1.5294508, 6.8786945), (35, -1.5286103, 6.8756385), (35, -1.5274577, 6.8726964), (35, -1.5260081, 6.869899), (35, -1.5242796, 6.8672748), (35, -1.5222932, 6.8648515), (35, -1.5200723, 6.862653), (35, -1.5173615, 6.8605003), (35, -1.5144318, 6.8586783), (35, -1.5113239, 6.8572073), (35, -1.5080796, 6.856103), (35, -1.5047426, 6.8553753), (35, -1.5013565, 6.8550305), (35, -1.4979068, 6.855073), (35, -1.4947478, 6.855461), (35, -1.4916568, 6.8561773), (35, -1.4886669, 6.857211), (35, -1.4858099, 6.858548), (35, -1.4831156, 6.8601713), (35, -1.4806117, 6.8620605), (35, -1.4783236, 6.864194), (35, -1.4760622, 6.86682), (35, -1.4741228, 6.8696775), (35, -1.4725277, 6.8727283), (35, -1.4712943, 6.8759303), (35, -1.4704349, 6.87924), (35, -1.4699914, 6.8822327), (37, -1.46985, 6.88515), (37, -1.4700187, 6.888335), (37, -1.4705492, 6.891606), (37, -1.4713897, 6.8946614), (37, -1.4725423, 6.8976035), (37, -1.4739919, 6.900401), (37, -1.4757204, 6.903025), (37, -1.4777068, 6.9054484), (37, -1.4799277, 6.907647), (37, -1.4826385, 6.9097996), (37, -1.4855682, 6.9116216), (37, -1.4886761, 6.9130926), (37, -1.4919204, 6.9141974), (37, -1.4952574, 6.9149246), (37, -1.4986435, 6.9152694), (37, -1.5020932, 6.9152274), (37, -1.5052522, 6.914839), (37, -1.5083432, 6.9141226), (37, -1.5113331, 6.913089), (37, -1.5141901, 6.9117517), (37, -1.5168844, 6.9101286), (37, -1.5193883, 6.9082394), (37, -1.5216764, 6.906106), (37, -1.5239378, 6.9034805), (37, -1.5258772, 6.9006224), (37, -1.5274723, 6.8975716), (37, -1.5287057, 6.89437), (37, -1.5295651, 6.89106), (37, -1.5300086, 6.8880672), (37, -1.53015, 6.88515), (37, -1.5299813, 6.8819647), (37, -1.5294508, 6.8786945), (37, -1.5286103, 6.8756385), (37, -1.5274577, 6.8726964), (37, -1.5260081, 6.869899), (37, -1.5242796, 6.8672748), (37, -1.5222932, 6.8648515), (37, -1.5200723, 6.862653), (37, -1.5173615, 6.8605003), (37, -1.5144318, 6.8586783), (37, -1.5113239, 6.8572073), (37, -1.5080796, 6.856103), (37, -1.5047426, 6.8553753), (37, -1.5013565, 6.8550305), (37, -1.4979068, 6.855073), (37, -1.4947478, 6.855461), (37, -1.4916568, 6.8561773), (37, -1.4886669, 6.857211), (37, -1.4858099, 6.858548), (37, -1.4831156, 6.8601713), (37, -1.4806117, 6.8620605), (37, -1.4783236, 6.864194), (37, -1.4760622, 6.86682), (37, -1.4741228, 6.8696775), (37, -1.4725277, 6.8727283), (37, -1.4712943, 6.8759303), (37, -1.4704349, 6.87924), (37, -1.4699914, 6.8822327)]
                                color3f[] primvars:displayColor = [(1, 0.62, 0.05)]
                                uniform token purpose = "proxy"
                                uniform token subdivisionScheme = "none"
                            }

                            def Mesh "StudyCoarse" (
                                prepend apiSchemas = ["AecoDerivedGeometryAPI"]
                            )
                            {
                                uniform token aeco:derived:approx = "tessellated"
                                rel aeco:derived:from = </demo_datacentre_01/demo_datacentre_01_Site/demo_datacentre_01/L01_Office/Office_Corridor_L01/Corridor_ceiling_void/pipe_clash_near/BodyExact>
                                uniform token aeco:derived:role = "proxy"
                                string aeco:derived:source = "6e5a2055-fc33-5dd4-8df1-af4a6e337adb"
                                string aeco:derived:stamp = "usdSolidOcct 0.1.0; linear deflection=0.006 m; angular deflection=0.5 rad"
                                double aeco:derived:tolerance = 0.006
                                int[] faceVertexCounts = [3, 3, 3, 3, 3, 3, 3, 3, 3, 3, 3, 3, 3, 3, 3, 3, 3, 3, 3, 3, 3, 3, 3, 3, 3, 3, 3, 3, 3, 3, 3, 3, 3, 3, 3, 3, 3, 3, 3, 3, 3, 3, 3, 3, 3, 3, 3, 3, 3, 3, 3, 3, 3, 3, 3, 3, 3, 3, 3, 3, 3, 3, 3, 3, 3, 3, 3, 3, 3, 3, 3, 3, 3, 3, 3, 3, 3, 3, 3, 3, 3, 3, 3, 3, 3, 3, 3, 3, 3, 3, 3, 3, 3, 3, 3, 3, 3, 3, 3, 3, 3, 3, 3, 3, 3, 3, 3, 3, 3, 3, 3, 3, 3, 3, 3, 3, 3, 3, 3, 3, 3, 3, 3, 3]
                                int[] faceVertexIndices = [32, 15, 14, 32, 16, 15, 32, 33, 16, 31, 14, 13, 31, 32, 14, 30, 13, 12, 30, 31, 13, 29, 12, 11, 29, 30, 12, 28, 29, 11, 27, 11, 10, 27, 28, 11, 26, 10, 9, 26, 27, 10, 25, 8, 7, 25, 9, 8, 25, 26, 9, 24, 25, 7, 23, 7, 6, 23, 24, 7, 22, 5, 4, 22, 6, 5, 22, 23, 6, 21, 22, 4, 20, 4, 3, 20, 21, 4, 19, 2, 1, 19, 3, 2, 19, 20, 3, 18, 19, 1, 17, 18, 1, 17, 1, 0, 49, 50, 51, 49, 51, 67, 48, 67, 66, 48, 49, 67, 47, 66, 65, 47, 48, 66, 46, 64, 63, 46, 65, 64, 46, 47, 65, 45, 63, 62, 45, 46, 63, 44, 45, 62, 43, 62, 61, 43, 44, 62, 42, 61, 60, 42, 43, 61, 41, 59, 58, 41, 60, 59, 41, 42, 60, 40, 41, 58, 39, 58, 57, 39, 40, 58, 38, 57, 56, 38, 39, 57, 37, 55, 54, 37, 56, 55, 37, 38, 56, 36, 37, 54, 35, 54, 53, 35, 36, 54, 34, 53, 52, 34, 35, 53, 69, 68, 71, 70, 69, 71, 73, 72, 71, 74, 73, 71, 75, 74, 71, 76, 75, 71, 77, 76, 71, 78, 77, 71, 79, 78, 71, 80, 79, 71, 81, 80, 71, 82, 81, 71, 83, 82, 71, 84, 83, 71, 85, 84, 71, 86, 85, 71, 87, 86, 71, 88, 87, 71, 89, 88, 71, 90, 89, 71, 91, 90, 71, 92, 91, 71, 93, 92, 71, 94, 93, 71, 95, 94, 71, 96, 95, 71, 97, 96, 71, 98, 97, 71, 99, 98, 71, 68, 99, 71, 103, 100, 101, 103, 101, 102, 103, 104, 105, 103, 105, 106, 103, 106, 107, 103, 107, 108, 103, 108, 109, 103, 109, 110, 103, 110, 111, 103, 111, 112, 103, 112, 113, 103, 113, 114, 103, 114, 115, 103, 115, 116, 103, 116, 117, 103, 117, 118, 103, 118, 119, 103, 119, 120, 103, 120, 121, 103, 121, 122, 103, 122, 123, 103, 123, 124, 103, 124, 125, 103, 125, 126, 103, 126, 127, 103, 127, 128, 103, 128, 129, 103, 129, 130, 103, 130, 131, 103, 131, 100]
                                point3f[] points = [(43, -1.53015, 6.88515), (43, -1.5293367, 6.8781943), (43, -1.5267155, 6.871175), (43, -1.5227695, 6.865387), (43, -1.5181156, 6.861049), (43, -1.5127398, 6.857824), (43, -1.5070289, 6.8558307), (43, -1.5013592, 6.8550305), (43, -1.4958018, 6.8552938), (43, -1.490068, 6.856683), (43, -1.4844769, 6.8593035), (43, -1.4794201, 6.8631163), (43, -1.4752584, 6.86792), (43, -1.4722414, 6.873382), (43, -1.470461, 6.8791113), (43, -1.4699976, 6.8821697), (43, -1.46985, 6.88515), (41, -1.53015, 6.88515), (41, -1.5293367, 6.8781943), (41, -1.5267155, 6.871175), (41, -1.5227695, 6.865387), (41, -1.5181156, 6.861049), (41, -1.5127398, 6.857824), (41, -1.5070289, 6.8558307), (41, -1.5013592, 6.8550305), (41, -1.4958018, 6.8552938), (41, -1.490068, 6.856683), (41, -1.4844769, 6.8593035), (41, -1.4794201, 6.8631163), (41, -1.4752584, 6.86792), (41, -1.4722414, 6.873382), (41, -1.470461, 6.8791113), (41, -1.4699976, 6.8821697), (41, -1.46985, 6.88515), (41, -1.46985, 6.88515), (41, -1.4706633, 6.8921056), (41, -1.4732845, 6.899125), (41, -1.4772305, 6.904913), (41, -1.4818844, 6.9092507), (41, -1.4872602, 6.912476), (41, -1.4929711, 6.9144692), (41, -1.4986408, 6.9152694), (41, -1.5041982, 6.915006), (41, -1.509932, 6.913617), (41, -1.5155231, 6.910997), (41, -1.5205799, 6.9071836), (41, -1.5247416, 6.90238), (41, -1.5277586, 6.896918), (41, -1.529539, 6.891189), (41, -1.5300024, 6.8881307), (41, -1.53015, 6.88515), (43, -1.53015, 6.88515), (43, -1.46985, 6.88515), (43, -1.4706633, 6.8921056), (43, -1.4732845, 6.899125), (43, -1.4772305, 6.904913), (43, -1.4818844, 6.9092507), (43, -1.4872602, 6.912476), (43, -1.4929711, 6.9144692), (43, -1.4986408, 6.9152694), (43, -1.5041982, 6.915006), (43, -1.509932, 6.913617), (43, -1.5155231, 6.910997), (43, -1.5205799, 6.9071836), (43, -1.5247416, 6.90238), (43, -1.5277586, 6.896918), (43, -1.529539, 6.891189), (43, -1.5300024, 6.8881307), (41, -1.46985, 6.88515), (41, -1.4706633, 6.8921056), (41, -1.4732845, 6.899125), (41, -1.4772305, 6.904913), (41, -1.4818844, 6.9092507), (41, -1.4872602, 6.912476), (41, -1.4929711, 6.9144692), (41, -1.4986408, 6.9152694), (41, -1.5041982, 6.915006), (41, -1.509932, 6.913617), (41, -1.5155231, 6.910997), (41, -1.5205799, 6.9071836), (41, -1.5247416, 6.90238), (41, -1.5277586, 6.896918), (41, -1.529539, 6.891189), (41, -1.5300024, 6.8881307), (41, -1.53015, 6.88515), (41, -1.5293367, 6.8781943), (41, -1.5267155, 6.871175), (41, -1.5227695, 6.865387), (41, -1.5181156, 6.861049), (41, -1.5127398, 6.857824), (41, -1.5070289, 6.8558307), (41, -1.5013592, 6.8550305), (41, -1.4958018, 6.8552938), (41, -1.490068, 6.856683), (41, -1.4844769, 6.8593035), (41, -1.4794201, 6.8631163), (41, -1.4752584, 6.86792), (41, -1.4722414, 6.873382), (41, -1.470461, 6.8791113), (41, -1.4699976, 6.8821697), (43, -1.46985, 6.88515), (43, -1.4706633, 6.8921056), (43, -1.4732845, 6.899125), (43, -1.4772305, 6.904913), (43, -1.4818844, 6.9092507), (43, -1.4872602, 6.912476), (43, -1.4929711, 6.9144692), (43, -1.4986408, 6.9152694), (43, -1.5041982, 6.915006), (43, -1.509932, 6.913617), (43, -1.5155231, 6.910997), (43, -1.5205799, 6.9071836), (43, -1.5247416, 6.90238), (43, -1.5277586, 6.896918), (43, -1.529539, 6.891189), (43, -1.5300024, 6.8881307), (43, -1.53015, 6.88515), (43, -1.5293367, 6.8781943), (43, -1.5267155, 6.871175), (43, -1.5227695, 6.865387), (43, -1.5181156, 6.861049), (43, -1.5127398, 6.857824), (43, -1.5070289, 6.8558307), (43, -1.5013592, 6.8550305), (43, -1.4958018, 6.8552938), (43, -1.490068, 6.856683), (43, -1.4844769, 6.8593035), (43, -1.4794201, 6.8631163), (43, -1.4752584, 6.86792), (43, -1.4722414, 6.873382), (43, -1.470461, 6.8791113), (43, -1.4699976, 6.8821697)]
                                color3f[] primvars:displayColor = [(1, 0.62, 0.05)]
                                uniform token purpose = "proxy"
                                uniform token subdivisionScheme = "none"
                            }
                        }

                        def "tray_void_ocorr_1"
                        {
                            def Mesh "StudyFine" (
                                prepend apiSchemas = ["AecoDerivedGeometryAPI"]
                            )
                            {
                                uniform token aeco:derived:approx = "tessellated"
                                rel aeco:derived:from = </demo_datacentre_01/demo_datacentre_01_Site/demo_datacentre_01/L01_Office/Office_Corridor_L01/Corridor_ceiling_void/tray_void_ocorr_1/BodyExact>
                                uniform token aeco:derived:role = "proxy"
                                string aeco:derived:source = "2df12127-2bce-58a4-b767-5f0747057b63"
                                string aeco:derived:stamp = "usdSolidOcct 0.1.0; linear deflection=0.0001 m; angular deflection=0.5 rad"
                                double aeco:derived:tolerance = 0.0001
                                int[] faceVertexCounts = [3, 3, 3, 3, 3, 3, 3, 3, 3, 3, 3, 3]
                                int[] faceVertexIndices = [1, 0, 3, 2, 1, 3, 4, 5, 7, 6, 4, 7, 8, 9, 11, 10, 8, 11, 12, 13, 15, 14, 12, 15, 16, 17, 18, 17, 19, 18, 22, 20, 21, 22, 23, 20]
                                point3f[] points = [(28, -1.65, 6.75), (41, -1.65, 6.75), (41, -1.35, 6.75), (28, -1.35, 6.75), (41, -1.35, 6.75), (28, -1.35, 6.75), (41, -1.35, 6.85), (28, -1.35, 6.85), (41, -1.35, 6.85), (28, -1.35, 6.85), (41, -1.65, 6.85), (28, -1.65, 6.85), (41, -1.65, 6.85), (28, -1.65, 6.85), (41, -1.65, 6.75), (28, -1.65, 6.75), (28, -1.35, 6.75), (28, -1.65, 6.75), (28, -1.35, 6.85), (28, -1.65, 6.85), (41, -1.65, 6.75), (41, -1.35, 6.75), (41, -1.35, 6.85), (41, -1.65, 6.85)]
                                color3f[] primvars:displayColor = [(0.4, 0.44, 0.48)]
                                uniform token purpose = "proxy"
                                uniform token subdivisionScheme = "none"
                            }

                            def Mesh "StudyCoarse" (
                                prepend apiSchemas = ["AecoDerivedGeometryAPI"]
                            )
                            {
                                uniform token aeco:derived:approx = "tessellated"
                                rel aeco:derived:from = </demo_datacentre_01/demo_datacentre_01_Site/demo_datacentre_01/L01_Office/Office_Corridor_L01/Corridor_ceiling_void/tray_void_ocorr_1/BodyExact>
                                uniform token aeco:derived:role = "proxy"
                                string aeco:derived:source = "2df12127-2bce-58a4-b767-5f0747057b63"
                                string aeco:derived:stamp = "usdSolidOcct 0.1.0; linear deflection=0.006 m; angular deflection=0.5 rad"
                                double aeco:derived:tolerance = 0.006
                                int[] faceVertexCounts = [3, 3, 3, 3, 3, 3, 3, 3, 3, 3, 3, 3]
                                int[] faceVertexIndices = [1, 0, 3, 2, 1, 3, 4, 5, 7, 6, 4, 7, 8, 9, 11, 10, 8, 11, 12, 13, 15, 14, 12, 15, 16, 17, 18, 17, 19, 18, 22, 20, 21, 22, 23, 20]
                                point3f[] points = [(34, -1.65, 6.75), (47, -1.65, 6.75), (47, -1.35, 6.75), (34, -1.35, 6.75), (47, -1.35, 6.75), (34, -1.35, 6.75), (47, -1.35, 6.85), (34, -1.35, 6.85), (47, -1.35, 6.85), (34, -1.35, 6.85), (47, -1.65, 6.85), (34, -1.65, 6.85), (47, -1.65, 6.85), (34, -1.65, 6.85), (47, -1.65, 6.75), (34, -1.65, 6.75), (34, -1.35, 6.75), (34, -1.65, 6.75), (34, -1.35, 6.85), (34, -1.65, 6.85), (47, -1.65, 6.75), (47, -1.35, 6.75), (47, -1.35, 6.85), (47, -1.65, 6.85)]
                                color3f[] primvars:displayColor = [(0.4, 0.44, 0.48)]
                                uniform token purpose = "proxy"
                                uniform token subdivisionScheme = "none"
                            }
                        }
                    }
                }
            }
        }
    }
}

