#usda 1.0
(
    defaultPrim = "World"
    fallbackPrimTypes = {
        token[] AecoClashResult = ["Scope"]
        token[] AecoClashTest = ["Scope"]
    }
    metersPerUnit = 1
    upAxis = "Z"
)

def Xform "World"
{
    def AecoClashTest "Test" (
        prepend apiSchemas = ["CollectionAPI:setA", "CollectionAPI:setB"]
    )
    {
        string aeco:id = "da5b8893-d6ca-5c1c-9a9c-91f40a2a3649"
        rel collection:setA:includes = [
            </World/A>,
            </World/B>,
        ]
        rel collection:setB:includes = [
            </World/A>,
            </World/B>,
        ]
    }

    def Xform "A" (
        prepend apiSchemas = ["AecoElementAPI", "AecoClassificationAPI:ifc"]
    )
    {
        string aeco:class:ifc:code = "IfcBuildingElementProxy"
        string aeco:id = "e4a949f3-70ea-501d-afab-a776e00be584"

        def Mesh "Body" (
            prepend apiSchemas = ["AecoDerivedGeometryAPI"]
        )
        {
            uniform token aeco:derived:approx = "tessellated"
            uniform token aeco:derived:role = "body"
            string aeco:derived:source = "e4a949f3-70ea-501d-afab-a776e00be584"
            string aeco:derived:stamp = "synthetic planar body"
            int[] faceVertexCounts = [3, 3, 3, 3, 3, 3, 3, 3, 3, 3, 3, 3]
            int[] faceVertexIndices = [0, 1, 2, 3, 4, 5, 6, 7, 8, 9, 10, 11, 12, 13, 14, 15, 16, 17, 18, 19, 20, 21, 22, 23, 24, 25, 26, 27, 28, 29, 30, 31, 32, 33, 34, 35]
            point3f[] points = [(0, 0, 0), (0, 0, 1), (0, 1, 1), (0, 0, 0), (0, 1, 1), (0, 1, 0), (1, 0, 0), (1, 1, 0), (1, 1, 1), (1, 0, 0), (1, 1, 1), (1, 0, 1), (0, 0, 0), (1, 0, 0), (1, 0, 1), (0, 0, 0), (1, 0, 1), (0, 0, 1), (0, 1, 0), (0, 1, 1), (1, 1, 1), (0, 1, 0), (1, 1, 1), (1, 1, 0), (0, 0, 0), (0, 1, 0), (1, 1, 0), (0, 0, 0), (1, 1, 0), (1, 0, 0), (0, 0, 1), (1, 0, 1), (1, 1, 1), (0, 0, 1), (1, 1, 1), (0, 1, 1)]
            color3f[] primvars:displayColor = [(0.6, 0.4, 0.2)]
            uniform token subdivisionScheme = "none"
        }
    }

    def Xform "B" (
        prepend apiSchemas = ["AecoElementAPI", "AecoClassificationAPI:ifc"]
    )
    {
        string aeco:class:ifc:code = "IfcBuildingElementProxy"
        string aeco:id = "3f1db0e7-4b0a-5e86-af83-de7a7343d452"

        def Mesh "Body" (
            prepend apiSchemas = ["AecoDerivedGeometryAPI"]
        )
        {
            uniform token aeco:derived:approx = "tessellated"
            uniform token aeco:derived:role = "body"
            string aeco:derived:source = "3f1db0e7-4b0a-5e86-af83-de7a7343d452"
            string aeco:derived:stamp = "synthetic planar body"
            int[] faceVertexCounts = [3, 3, 3, 3, 3, 3, 3, 3, 3, 3, 3, 3]
            int[] faceVertexIndices = [0, 1, 2, 3, 4, 5, 6, 7, 8, 9, 10, 11, 12, 13, 14, 15, 16, 17, 18, 19, 20, 21, 22, 23, 24, 25, 26, 27, 28, 29, 30, 31, 32, 33, 34, 35]
            point3f[] points = [(0.5, 0.5, 0.5), (0.5, 0.5, 1.5), (0.5, 1.5, 1.5), (0.5, 0.5, 0.5), (0.5, 1.5, 1.5), (0.5, 1.5, 0.5), (1.5, 0.5, 0.5), (1.5, 1.5, 0.5), (1.5, 1.5, 1.5), (1.5, 0.5, 0.5), (1.5, 1.5, 1.5), (1.5, 0.5, 1.5), (0.5, 0.5, 0.5), (1.5, 0.5, 0.5), (1.5, 0.5, 1.5), (0.5, 0.5, 0.5), (1.5, 0.5, 1.5), (0.5, 0.5, 1.5), (0.5, 1.5, 0.5), (0.5, 1.5, 1.5), (1.5, 1.5, 1.5), (0.5, 1.5, 0.5), (1.5, 1.5, 1.5), (1.5, 1.5, 0.5), (0.5, 0.5, 0.5), (0.5, 1.5, 0.5), (1.5, 1.5, 0.5), (0.5, 0.5, 0.5), (1.5, 1.5, 0.5), (1.5, 0.5, 0.5), (0.5, 0.5, 1.5), (1.5, 0.5, 1.5), (1.5, 1.5, 1.5), (0.5, 0.5, 1.5), (1.5, 1.5, 1.5), (0.5, 1.5, 1.5)]
            color3f[] primvars:displayColor = [(0.6, 0.4, 0.2)]
            uniform token subdivisionScheme = "none"
        }
    }
}

